<svg width="30" height="30" viewBox="0 0 30 30" fill="none" xmlns="http://www.w3.org/2000/svg">
<circle cx="15" cy="15" r="15" fill="#151513"/>
<path fill-rule="evenodd" clip-rule="evenodd" d="M18.049 12.2635C18.049 11.9346 17.7824 11.668 17.4535 11.668L9.72979 11.668C8.74316 11.668 7.94334 10.8682 7.94334 9.88159C7.94334 8.89496 8.74316 8.09515 9.72978 8.09515L17.4535 8.09515C19.7556 8.09515 21.6219 9.96139 21.6219 12.2635L21.6219 19.9872C21.6219 20.9739 20.8221 21.7737 19.8354 21.7737C18.8488 21.7737 18.049 20.9739 18.049 19.9872L18.049 12.2635Z" fill="white"/>
<path fill-rule="evenodd" clip-rule="evenodd" d="M8.26404 21.4554C8.96175 22.153 10.0929 22.1529 10.7905 21.4552L19.4089 12.8354C20.1065 12.1376 20.1064 11.0065 19.4087 10.3089C18.711 9.61135 17.5798 9.61144 16.8823 10.3092L8.26383 18.929C7.56624 19.6267 7.56633 20.7579 8.26404 21.4554Z" fill="white"/>
</svg>
