<svg width="30" height="30" viewBox="0 0 30 30" fill="none" xmlns="http://www.w3.org/2000/svg">
<circle cx="15" cy="15" r="15" transform="rotate(-180 15 15)" fill="#151513"/>
<path fill-rule="evenodd" clip-rule="evenodd" d="M11.951 17.7365C11.951 18.0654 12.2176 18.332 12.5465 18.332L20.2702 18.332C21.2568 18.332 22.0567 19.1318 22.0567 20.1184C22.0567 21.105 21.2568 21.9049 20.2702 21.9049L12.5465 21.9049C10.2444 21.9049 8.37812 20.0386 8.37812 17.7365L8.37812 10.0128C8.37812 9.02613 9.17794 8.22631 10.1646 8.22631C11.1512 8.22631 11.951 9.02613 11.951 10.0128L11.951 17.7365Z" fill="white"/>
<path fill-rule="evenodd" clip-rule="evenodd" d="M21.736 8.54455C21.0383 7.84696 19.9071 7.84706 19.2095 8.54477L10.5911 17.1646C9.89353 17.8624 9.89362 18.9935 10.5913 19.6911C11.289 20.3887 12.4202 20.3886 13.1177 19.6908L21.7362 11.071C22.4338 10.3733 22.4337 9.24214 21.736 8.54455Z" fill="white"/>
</svg>
