<svg width="27" height="29" viewBox="0 0 27 29" fill="none" xmlns="http://www.w3.org/2000/svg">
<path fill-rule="evenodd" clip-rule="evenodd" d="M0.57179 9.53693C0.957808 5.70546 4.1925 2.71465 8.12573 2.71465H18.6892C22.6225 2.71465 25.8571 5.70546 26.2432 9.53693H0.57179ZM0.533203 11.0774V20.8707C0.533203 25.0639 3.93249 28.4632 8.12573 28.4632H18.6892C22.8825 28.4632 26.2818 25.0639 26.2818 20.8707V11.0774H0.533203ZM6.14449 16.3592C5.71909 16.3592 5.37424 16.0144 5.37424 15.589C5.37424 15.1636 5.71909 14.8187 6.14449 14.8187H7.46493C7.89033 14.8187 8.23519 15.1636 8.23519 15.589C8.23519 16.0144 7.89033 16.3592 7.46493 16.3592H6.14449ZM11.9764 15.589C11.9764 16.0144 12.3213 16.3592 12.7467 16.3592H14.0671C14.4925 16.3592 14.8374 16.0144 14.8374 15.589C14.8374 15.1636 14.4925 14.8187 14.0671 14.8187H12.7467C12.3213 14.8187 11.9764 15.1636 11.9764 15.589ZM19.3489 16.3592C18.9235 16.3592 18.5786 16.0144 18.5786 15.589C18.5786 15.1636 18.9235 14.8187 19.3489 14.8187H20.6693C21.0947 14.8187 21.4396 15.1636 21.4396 15.589C21.4396 16.0144 21.0947 16.3592 20.6693 16.3592H19.3489ZM5.37409 20.8707C5.37409 21.2961 5.71895 21.641 6.14435 21.641H7.46479C7.89019 21.641 8.23505 21.2961 8.23505 20.8707C8.23505 20.4453 7.89019 20.1005 7.46479 20.1005H6.14435C5.71895 20.1005 5.37409 20.4453 5.37409 20.8707ZM12.7465 21.641C12.3211 21.641 11.9763 21.2961 11.9763 20.8707C11.9763 20.4453 12.3211 20.1005 12.7465 20.1005H14.067C14.4924 20.1005 14.8372 20.4453 14.8372 20.8707C14.8372 21.2961 14.4924 21.641 14.067 21.641H12.7465ZM18.5785 20.8707C18.5785 21.2961 18.9233 21.641 19.3487 21.641H20.6692C21.0946 21.641 21.4394 21.2961 21.4394 20.8707C21.4394 20.4453 21.0946 20.1005 20.6692 20.1005H19.3487C18.9233 20.1005 18.5785 20.4453 18.5785 20.8707ZM19.3486 0.954102C18.9232 0.954102 18.5783 1.29896 18.5783 1.72436V5.68567C18.5783 6.11107 18.9232 6.45593 19.3486 6.45593C19.774 6.45593 20.1188 6.11107 20.1188 5.68567V1.72436C20.1188 1.29896 19.774 0.954102 19.3486 0.954102ZM7.46465 0.954102C7.03925 0.954102 6.69439 1.29896 6.69439 1.72436V5.68567C6.69439 6.11107 7.03925 6.45593 7.46465 6.45593C7.89005 6.45593 8.2349 6.11107 8.2349 5.68567V1.72436C8.2349 1.29896 7.89005 0.954102 7.46465 0.954102Z" fill="#0A0A0A"/>
</svg>
