<svg width="17" height="14" viewBox="0 0 17 14" fill="none" xmlns="http://www.w3.org/2000/svg">
<path fill-rule="evenodd" clip-rule="evenodd" d="M0 3.70058C0 1.65681 1.65681 0 3.70058 0H13.0494C15.0932 0 16.75 1.65681 16.75 3.70058V4.65342C16.75 5.09404 16.4428 5.41292 16.1106 5.52748C15.5751 5.71209 15.1919 6.22047 15.1919 6.81686C15.1919 7.41325 15.5751 7.92163 16.1106 8.10624C16.4428 8.2208 16.75 8.53968 16.75 8.9803V9.93314C16.75 11.9769 15.0932 13.6337 13.0494 13.6337H3.70058C1.65681 13.6337 0 11.9769 0 9.93314V8.9803C0 8.53968 0.307172 8.2208 0.639449 8.10624C1.17486 7.92163 1.55814 7.41325 1.55814 6.81686C1.55814 6.22047 1.17486 5.71209 0.639449 5.52748C0.307173 5.41292 0 5.09404 0 4.65342V3.70058ZM3.70058 1.1686C2.30221 1.1686 1.1686 2.30221 1.1686 3.70058V4.47911C2.08295 4.86044 2.72674 5.76279 2.72674 6.81686C2.72674 7.87093 2.08295 8.77328 1.1686 9.15461V9.93314C1.1686 11.3315 2.30221 12.4651 3.70058 12.4651H13.0494C14.4478 12.4651 15.5814 11.3315 15.5814 9.93314V9.15461C14.667 8.77328 14.0233 7.87093 14.0233 6.81686C14.0233 5.76279 14.667 4.86044 15.5814 4.47911V3.70058C15.5814 2.30221 14.4478 1.1686 13.0494 1.1686H3.70058Z" fill="#E84741"/>
<path fill-rule="evenodd" clip-rule="evenodd" d="M10.7121 2.55407e-08C11.0348 1.14349e-08 11.2964 0.261601 11.2964 0.584302L11.2964 2.92151C11.2964 3.24421 11.0348 3.50581 10.7121 3.50581C10.3894 3.50581 10.1278 3.24421 10.1278 2.92151L10.1278 0.584302C10.1278 0.261601 10.3894 3.96464e-08 10.7121 2.55407e-08Z" fill="#E84741"/>
<path fill-rule="evenodd" clip-rule="evenodd" d="M10.7121 5.06396C11.0348 5.06396 11.2964 5.32557 11.2964 5.64827L11.2964 7.98548C11.2964 8.30818 11.0348 8.56978 10.7121 8.56978C10.3894 8.56978 10.1278 8.30818 10.1278 7.98548L10.1278 5.64827C10.1278 5.32557 10.3894 5.06396 10.7121 5.06396Z" fill="#E84741"/>
<path fill-rule="evenodd" clip-rule="evenodd" d="M10.7121 10.1279C11.0348 10.1279 11.2964 10.3895 11.2964 10.7122L11.2964 13.0494C11.2964 13.3721 11.0348 13.6337 10.7121 13.6337C10.3894 13.6337 10.1278 13.3721 10.1278 13.0494L10.1278 10.7122C10.1278 10.3895 10.3894 10.1279 10.7121 10.1279Z" fill="#E84741"/>
</svg>
