<svg width="190" height="31" viewBox="0 0 190 31" fill="none" xmlns="http://www.w3.org/2000/svg">
<g clip-path="url(#clip0_560_2)">
<path d="M2.67233 10.7449L20.143 0.743438C22.6959 -0.716128 25.9571 0.152661 27.43 2.68258C28.9028 5.21249 28.0261 8.44439 25.4732 9.90395L7.99557 19.9055C5.44266 21.365 2.18139 20.4962 0.701537 17.9663C-0.771297 15.4364 0.10539 12.2045 2.6583 10.7449" fill="#E84741"/>
<path d="M35.9302 28.2876C37.3469 30.7133 40.4749 31.5473 42.9296 30.1433L60.779 19.9333C63.2267 18.5294 64.0683 15.4295 62.6516 12.9969L62.4342 12.6286C61.0174 10.2029 57.8894 9.36886 55.4347 10.7728L37.5853 20.9828C35.1376 22.3868 34.296 25.4866 35.7127 27.9192" fill="#FAB60F"/>
<path d="M36.0354 2.90512C34.6186 5.33078 35.4603 8.43757 37.908 9.84154L55.7573 20.0516C58.205 21.4555 61.3401 20.6215 62.7568 18.1958L62.9742 17.8274C64.3909 15.4018 63.5493 12.295 61.1016 10.891L43.2452 0.681024C40.7975 -0.72294 37.6625 0.111098 36.2458 2.53676" fill="#00954B"/>
<path d="M86.3922 16.7852C86.3922 18.9329 85.747 20.6496 84.4635 21.9215C83.0188 23.4436 81.1181 24.2012 78.7545 24.2012C76.391 24.2012 74.5885 23.4297 73.0245 21.8798C71.4605 20.3299 70.682 18.4255 70.682 16.1597C70.682 13.8939 71.4605 11.9895 73.0245 10.4396C74.5885 8.88965 76.4962 8.11816 78.7545 8.11816C79.8977 8.11816 80.9778 8.31972 81.9878 8.72284C82.9977 9.12596 83.8323 9.68893 84.4846 10.4187L83.0538 11.8366C82.5769 11.2667 81.9597 10.8149 81.2023 10.4952C80.4448 10.1755 79.6312 10.0086 78.7616 10.0086C77.0713 10.0086 75.6406 10.5925 74.4693 11.7532C73.3121 12.9278 72.737 14.3943 72.737 16.1597C72.737 17.9251 73.3121 19.3916 74.4693 20.5662C75.6406 21.7269 77.0713 22.3107 78.7616 22.3107C80.3115 22.3107 81.595 21.8798 82.626 21.0179C83.65 20.1561 84.2461 18.9746 84.4074 17.4733H78.7686V15.6245H86.2941C86.3642 16.0276 86.3993 16.4099 86.3993 16.7852H86.3922Z" fill="white"/>
<path d="M88.819 23.8533V8.46533H93.5671C95.9377 8.46533 97.8453 9.17426 99.2831 10.5921C100.721 12.01 101.443 13.8657 101.443 16.1593C101.443 18.4529 100.721 20.3295 99.2831 21.7404C97.8453 23.1513 95.9377 23.8603 93.5671 23.8603H88.819V23.8533ZM90.8178 10.3489V21.9559H93.5741C95.3836 21.9559 96.8073 21.4416 97.8453 20.4199C98.8833 19.3982 99.4094 17.9734 99.4094 16.1524C99.4094 14.3314 98.8903 12.9274 97.8453 11.8988C96.8003 10.8701 95.3766 10.3489 93.5741 10.3489H90.8178Z" fill="white"/>
<path d="M118.76 16.7852C118.76 18.9329 118.114 20.6496 116.831 21.9215C115.386 23.4436 113.485 24.2012 111.122 24.2012C108.758 24.2012 106.956 23.4297 105.392 21.8798C103.828 20.3299 103.049 18.4255 103.049 16.1597C103.049 13.8939 103.828 11.9895 105.392 10.4396C106.956 8.88965 108.864 8.11816 111.122 8.11816C112.265 8.11816 113.345 8.31972 114.355 8.72284C115.365 9.12596 116.2 9.68893 116.852 10.4187L115.421 11.8366C114.944 11.2667 114.327 10.8149 113.57 10.4952C112.812 10.1755 111.999 10.0086 111.129 10.0086C109.439 10.0086 108.008 10.5925 106.837 11.7532C105.679 12.9278 105.104 14.3943 105.104 16.1597C105.104 17.9251 105.679 19.3916 106.837 20.5662C108.008 21.7269 109.439 22.3107 111.129 22.3107C112.679 22.3107 113.962 21.8798 114.993 21.0179C116.017 20.1561 116.613 18.9746 116.775 17.4733H111.136V15.6245H118.661C118.732 16.0276 118.767 16.4099 118.767 16.7852H118.76Z" fill="white"/>
<path d="M125.962 23.8533V8.46533H131.58C132.808 8.46533 133.867 8.86845 134.75 9.66774C135.634 10.4531 136.076 11.454 136.076 12.6564C136.076 14.1785 135.375 15.2419 133.972 15.8605V15.9439C134.764 16.201 135.403 16.6528 135.879 17.2853C136.356 17.9247 136.595 18.6475 136.595 19.4677C136.595 20.7257 136.132 21.7752 135.206 22.6092C134.308 23.4433 133.2 23.8533 131.889 23.8533H125.969H125.962ZM127.961 10.3489V15.0542H131.587C132.296 15.0542 132.892 14.8179 133.369 14.3453C133.846 13.8588 134.084 13.3097 134.084 12.6911C134.084 12.0725 133.853 11.5443 133.39 11.0578C132.927 10.5852 132.359 10.3489 131.678 10.3489H127.968H127.961ZM127.961 16.903V21.9559H131.973C132.695 21.9559 133.313 21.7057 133.818 21.2053C134.308 20.7048 134.554 20.1071 134.554 19.419C134.554 18.7309 134.301 18.161 133.796 17.6536C133.292 17.1532 132.653 16.903 131.889 16.903H127.961Z" fill="white"/>
<path d="M144.247 24.2008C142.528 24.2008 141.14 23.6448 140.081 22.5258C139.022 21.4207 138.496 19.9612 138.496 18.1402V8.46533H140.494V18.2236C140.494 19.4816 140.824 20.4824 141.49 21.2122C142.157 21.942 143.075 22.3104 144.247 22.3104C145.418 22.3104 146.337 21.942 147.003 21.2122C147.669 20.4824 147.999 19.4885 147.999 18.2236V8.46533H149.998V18.1402C149.998 20.0029 149.479 21.4763 148.434 22.5675C147.396 23.6587 145.993 24.2008 144.247 24.2008Z" fill="white"/>
<path d="M154.767 23.8533H152.768V8.46533H158.063C159.41 8.46533 160.553 8.9032 161.5 9.78589C162.447 10.6686 162.924 11.7528 162.924 13.0456C162.924 14.109 162.573 15.0473 161.872 15.8744C161.17 16.7015 160.287 17.2227 159.213 17.4521L159.171 17.5146L163.534 23.7699V23.8533H161.17L156.983 17.6189H154.767V23.8533ZM154.767 10.3489V15.7632H157.979C158.786 15.7632 159.473 15.499 160.041 14.9778C160.602 14.4565 160.89 13.8032 160.89 13.0317C160.89 12.3158 160.623 11.6903 160.097 11.1482C159.571 10.613 158.905 10.3419 158.112 10.3419H154.774L154.767 10.3489Z" fill="white"/>
<path d="M174.903 19.7458C174.903 21.0941 174.405 22.1784 173.409 22.9916C172.399 23.7978 171.164 24.194 169.72 24.194C168.429 24.194 167.3 23.8187 166.311 23.075C165.329 22.3313 164.649 21.3096 164.27 20.0238L166.178 19.2523C166.311 19.711 166.486 20.128 166.718 20.4964C166.949 20.8717 167.223 21.1914 167.531 21.4556C167.84 21.7197 168.184 21.9282 168.562 22.0811C168.941 22.234 169.334 22.3035 169.755 22.3035C170.666 22.3035 171.41 22.0672 171.992 21.6015C172.567 21.1358 172.862 20.5173 172.862 19.7388C172.862 19.0925 172.623 18.5434 172.146 18.0847C171.697 17.6398 170.856 17.2089 169.628 16.7919C168.387 16.3471 167.609 16.0482 167.307 15.8884C165.659 15.0543 164.831 13.8311 164.831 12.2116C164.831 11.0787 165.287 10.1126 166.199 9.30641C167.125 8.50712 168.261 8.104 169.607 8.104C170.793 8.104 171.824 8.40287 172.686 9.00754C173.556 9.59832 174.131 10.3351 174.419 11.2247L172.553 11.9962C172.378 11.4263 172.034 10.9467 171.522 10.5644C171.01 10.1821 170.386 9.99449 169.642 9.99449C168.864 9.99449 168.205 10.2099 167.672 10.6409C167.139 11.044 166.872 11.5653 166.872 12.2116C166.872 12.7399 167.083 13.1986 167.503 13.5878C167.966 13.977 168.969 14.4357 170.519 14.964C172.097 15.4922 173.219 16.1455 173.893 16.9101C174.566 17.6746 174.903 18.6198 174.903 19.7388V19.7458Z" fill="white"/>
<path d="M178.003 23.8534H175.786L181.643 8.4585H183.901L189.757 23.8534H187.541L186.047 19.6833H179.518L177.996 23.8534H178.003ZM182.73 10.8911L180.191 17.8345H185.353L182.814 10.8911H182.73Z" fill="white"/>
<path d="M8.03745 10.6897L25.5151 20.6912C28.068 22.1508 28.9447 25.3827 27.4648 27.9126C25.992 30.4425 22.7307 31.3113 20.1778 29.8448L2.70017 19.8502C0.14726 18.3907 -0.729427 15.1588 0.743407 12.6289C2.21624 10.099 5.47752 9.23016 8.03043 10.6897" fill="#0A7CC0"/>
</g>
<defs>
<clipPath id="clip0_560_2">
<rect width="189.764" height="30.8246" fill="white"/>
</clipPath>
</defs>
</svg>
