<svg width="28" height="29" viewBox="0 0 28 29" fill="none" xmlns="http://www.w3.org/2000/svg">
<path fill-rule="evenodd" clip-rule="evenodd" d="M24.0863 0.835624C26.0553 0.578102 27.6736 2.1964 27.4161 4.16541C27.0109 7.2632 25.9028 12.469 22.8055 15.8086C21.7417 16.9555 20.4382 18.0106 19.1081 18.9375L19.2771 18.9134L19.6492 21.5181C19.7411 22.1617 19.5247 22.811 19.065 23.2708L14.8789 27.4569C13.6753 28.6604 11.6142 27.9734 11.3735 26.2884L10.8154 22.3814L11.0417 22.3491C10.5732 22.1864 10.1384 21.9166 9.77516 21.5534L6.69825 18.4765C6.33503 18.1133 6.06527 17.6784 5.90261 17.2099L5.87026 17.4364L1.96324 16.8782C0.278232 16.6375 -0.408795 14.5764 0.794783 13.3728L4.98088 9.18674C5.4406 8.72701 6.08995 8.51056 6.73356 8.60251L9.33824 8.97461L9.32205 9.08799L9.35704 9.08215C10.2736 7.77343 11.3138 6.49362 12.4431 5.44622C15.7827 2.34892 20.9885 1.24078 24.0863 0.835624ZM3.71596 18.9543C4.00885 19.2472 4.00885 19.722 3.71596 20.0149L1.85547 21.8754C1.56258 22.1683 1.0877 22.1683 0.794811 21.8754C0.501918 21.5825 0.501918 21.1076 0.794811 20.8147L2.6553 18.9543C2.94819 18.6614 3.42306 18.6614 3.71596 18.9543ZM6.50669 21.745C6.79958 22.0379 6.79958 22.5128 6.50669 22.8057L2.78571 26.5266C2.49282 26.8195 2.01795 26.8195 1.72505 26.5266C1.43216 26.2337 1.43216 25.7589 1.72505 25.466L5.44603 21.745C5.73892 21.4521 6.21379 21.4521 6.50669 21.745ZM9.29741 24.5357C9.59031 24.8286 9.59031 25.3035 9.29741 25.5964L7.43693 27.4569C7.14404 27.7498 6.66916 27.7498 6.37627 27.4569C6.08338 27.164 6.08338 26.6891 6.37627 26.3962L8.23675 24.5357C8.52965 24.2428 9.00452 24.2428 9.29741 24.5357ZM16.2093 12.0425C15.1818 11.015 15.1818 9.34907 16.2093 8.32155C17.2368 7.29404 18.9027 7.29404 19.9303 8.32155C20.9578 9.34907 20.9578 11.015 19.9303 12.0425C18.9027 13.07 17.2368 13.07 16.2093 12.0425Z" fill="#0A0A0A"/>
</svg>
