<svg width="29" height="29" viewBox="0 0 29 29" fill="none" xmlns="http://www.w3.org/2000/svg">
<path fill-rule="evenodd" clip-rule="evenodd" d="M0.336914 14.599C0.336914 6.94177 6.54431 0.734375 14.2015 0.734375C21.8587 0.734375 28.0661 6.94177 28.0661 14.599C28.0661 22.2562 21.8587 28.4636 14.2015 28.4636C6.54431 28.4636 0.336914 22.2562 0.336914 14.599ZM16.515 17.5828C16.8403 17.4917 17.0946 17.2375 17.1857 16.9121L18.7816 11.2123C18.8758 10.8758 18.7812 10.5146 18.5341 10.2675C18.287 10.0204 17.9258 9.92578 17.5893 10.02L11.8895 11.616C11.5641 11.7071 11.3099 11.9613 11.2188 12.2866L9.62285 17.9865C9.52863 18.323 9.62324 18.6842 9.87034 18.9313C10.1174 19.1784 10.4786 19.273 10.8151 19.1788L16.515 17.5828Z" fill="#0A0A0A"/>
</svg>
