<svg width="36" height="25" viewBox="0 0 36 25" fill="none" xmlns="http://www.w3.org/2000/svg">
<path d="M1.89136 7.59463C1.89136 4.38776 4.4203 1.78809 7.5399 1.78809H18.837C21.9566 1.78809 24.4855 4.38776 24.4855 7.59463V17.5487C24.4855 20.7556 21.9566 23.3552 18.837 23.3552H7.5399C4.4203 23.3552 1.89136 20.7556 1.89136 17.5487V7.59463Z" fill="#0A0A0A"/>
<path fill-rule="evenodd" clip-rule="evenodd" d="M0.864258 7.68468C0.864258 3.86096 3.89008 0.76123 7.62263 0.76123H18.7541C22.4866 0.76123 25.5124 3.86096 25.5124 7.68468V17.459C25.5124 21.2827 22.4866 24.3824 18.7541 24.3824H7.62263C3.89008 24.3824 0.864258 21.2827 0.864258 17.459V7.68468ZM7.62263 3.2048C5.20745 3.2048 3.24957 5.21051 3.24957 7.68468V17.459C3.24957 19.9331 5.20745 21.9388 7.62263 21.9388H18.7541C21.1692 21.9388 23.1271 19.9331 23.1271 17.459V7.68468C23.1271 5.21051 21.1692 3.2048 18.7541 3.2048H7.62263Z" fill="#0A0A0A"/>
<path d="M24.4854 10.8918L31.531 6.24786C32.8931 5.35002 34.7554 6.27666 34.7554 7.85226V18.3188C34.7554 19.8887 32.9051 20.8166 31.5419 19.9304L24.4854 15.3429V10.8918Z" fill="#0A0A0A"/>
<path fill-rule="evenodd" clip-rule="evenodd" d="M33.3178 7.97347C33.3178 7.39634 32.6473 7.05692 32.157 7.38579L25.9233 11.5664V14.6613L32.1609 18.7873C32.6517 19.1119 33.3178 18.772 33.3178 18.197V7.97347ZM30.7524 5.42687C32.8774 4.00176 35.7826 5.47257 35.7826 7.97347V18.197C35.7826 20.6888 32.8961 22.1616 30.7694 20.7549L23.4585 15.919V10.3185L30.7524 5.42687Z" fill="#0A0A0A"/>
</svg>
